<svg id="图层_1" data-name="图层 1" xmlns="http://www.w3.org/2000/svg" viewBox="0 0 850.39 850.39"><defs><style>.cls-1{stroke:#000;stroke-miterlimit:10;stroke-width:10px;}</style></defs><path class="cls-1" d="M775.35,295.08c41.45-52.15,54.55-97.65,38.94-135.21-8.85-21.29-27.7-36-53.09-41.47-58.76-12.63-144.13,24.32-205.4,57.54-93.22,50.54-196.43,127.87-298.47,223.61a35.14,35.14,0,0,0,24,60.76H312.8c.34,0,.68.05,1,.05H477C394,530.89,311.6,587.81,239.38,624c-89.79,45-130.6,42.12-138.79,38.33-2.54-9.16,3.51-30.42,28.9-62.57,22.32-28.27,48.27-50.49,48.5-50.69a35.15,35.15,0,0,0,10.28-38.8,247.9,247.9,0,0,1-14.92-85.06c0-137.11,111.55-248.66,248.66-248.66a35.14,35.14,0,0,0,0-70.28c-175.86,0-318.94,143.08-318.94,318.94a318.46,318.46,0,0,0,11.86,86.43,464.72,464.72,0,0,0-39.88,43.67C33.6,607.47,20.49,653,36.1,690.52c8.85,21.29,27.7,36,53.09,41.47a121.9,121.9,0,0,0,25.63,2.54c56.16,0,126.94-31.43,179.78-60.08C387.82,623.91,491,546.59,593.07,450.85a35.14,35.14,0,0,0-24-60.77H537.58c-.34,0-.67-.05-1-.05H373.4c83-70.53,165.4-127.45,237.61-163.65,89.79-45,130.6-42.12,138.8-38.32,2.53,9.15-3.51,30.41-28.9,62.57-22.33,28.26-48.27,50.48-48.5,50.68a35.13,35.13,0,0,0-10.28,38.81A247.83,247.83,0,0,1,677,425.17c0,137.11-111.55,248.66-248.66,248.66a35.14,35.14,0,1,0,0,70.28c175.87,0,318.94-143.07,318.94-318.94a318.89,318.89,0,0,0-11.85-86.43A467.1,467.1,0,0,0,775.35,295.08Z"/></svg>